# xmcd
#
# Track frame offsets:
#	150
#	18244
#	29050
#	37086
#	66070
#	74578
#	90820
#	108793
#	124708
#	145025
#	170425
#	193325
#	210603
#	230305
#	254835
#	273718
#	282938
#	301723
#	321810
#	335615
#
# Disc length: 4710 seconds
#
# Revision: 2
# Processed by: cddbd v1.5.1PL0 Copyright (c) Steve Scherf et al.
# Submitted via: audiograbber 1.83.01
#
DISCID=29126414
DTITLE=Alicia Keys - The Diary of Alicia Keys - CD2
DYEAR=2003
DGENRE=R&B
TTITLE0=Gang Sta Looin' (feat Eve)
TTITLE1=Moonlight Sonata
TTITLE2=I got a Little Something For You
TTITLE3=Someday We'll All Be Free
TTITLE4=Piano and I
TTITLE5=Girlfriend
TTITLE6=How Come You Don't Call Me
TTITLE7=Fallin'
TTITLE8=Troubles
TTITLE9=Rock With You
TTITLE10=A Woman's W
TTITLE11=Jane Doe
TTITLE12=Goodbye
TTITLE13=The Life
TTITLE14=Mr Man 9duet with Jimmy Cozier)
TTITLE15=Never Felt This Way
TTITLE16=Butterflyz
TTITLE17=Why Do I Feel So Sad
TTITLE18=Caged Bird
TTITLE19=Fallin' (remix feat Busta Rhymes and Rampage)
EXTD=
EXTT0=
EXTT1=
EXTT2=
EXTT3=
EXTT4=
EXTT5=
EXTT6=
EXTT7=
EXTT8=
EXTT9=
EXTT10=
EXTT11=
EXTT12=
EXTT13=
EXTT14=
EXTT15=
EXTT16=
EXTT17=
EXTT18=
EXTT19=
PLAYORDER=
